<?xml version="1.0" encoding="utf-8"?>
<!-- Generator: Adobe Illustrator 22.0.1, SVG Export Plug-In . SVG Version: 6.00 Build 0)  -->
<svg version="1.1" id="Layer_1" xmlns="http://www.w3.org/2000/svg" xmlns:xlink="http://www.w3.org/1999/xlink" x="0px" y="0px"
	 viewBox="0 0 97.5 97.5" style="enable-background:new 0 0 97.5 97.5;" xml:space="preserve">
<style type="text/css">
	.st0{fill:#0A2A63;}
</style>
<g>
	<path class="st0" d="M81.3,41v52.3h-5.3V53.1H62.2v40.3h-5.7V66.2H42.8v27.2h-5.3v-17H23.8v17H6.9c-1.4,0-2.6-1.1-2.6-2.6V6.1
		c0-1.4,1.1-2.6,2.6-2.6h48.5v14.3c0,2,1.6,3.5,3.5,3.5h14.4v24.3h1.5V20.1L56.7,2H6.9C4.7,2,2.8,3.8,2.8,6.1v84.7
		c0,2.2,1.8,4.1,4.1,4.1h16.9h13.8h5.3h13.8h5.7h13.8h5.3h6.9H95V41H81.3z M56.9,17.8V4.3l15.5,15.5H59
		C57.8,19.8,56.9,18.9,56.9,17.8z M25.3,93.3V77.8H36v15.5H25.3z M44.3,93.3V67.7H55v25.7H44.3z M63.7,93.3V54.6h10.8v38.8H63.7z
		 M93.5,93.3h-5.4h-5.4V42.5h10.8V93.3z"/>
	<rect x="12.7" y="56.7" class="st0" width="37" height="1.5"/>
	<rect x="12.7" y="65.8" class="st0" width="14.2" height="1.5"/>
	<path class="st0" d="M50,33.8c0-12.1-9.9-22-22-22h-0.8v5.9c-8,0.8-14.2,7.5-14.2,15.6c0,8.6,7,15.7,15.7,15.7
		c8.3,0,15-6.3,15.6-14.4H50V33.8z M28.8,47.4c-7.8,0-14.2-6.4-14.2-14.2c0-7.3,5.5-13.3,12.7-14.1v15.3h15.6
		C42.2,41.8,36.2,47.4,28.8,47.4z M28.8,33V13.3c10.7,0.4,19.3,9,19.7,19.7H28.8z"/>
</g>
</svg>
