<?xml version="1.0" encoding="utf-8"?>
<!-- Generator: Adobe Illustrator 25.4.1, SVG Export Plug-In . SVG Version: 6.00 Build 0)  -->
<svg version="1.1" id="Layer_1" xmlns="http://www.w3.org/2000/svg" xmlns:xlink="http://www.w3.org/1999/xlink" x="0px" y="0px"
	 viewBox="0 0 97.5 97.5" style="enable-background:new 0 0 97.5 97.5;" xml:space="preserve">
<style type="text/css">
	.st0{fill:#0A2A63;}
</style>
<g>
	<path class="st0" d="M65.4,34.7c-0.1-0.7-0.1-1.3-0.3-1.9c-1.1-5-4.1-8.6-8.7-10.7c-0.2-0.1-0.5-0.2-0.7-0.3l-1-0.4l0.5-0.3
		c1.8-1.1,3-2.5,3.8-4.3c0.8-1.8,1-3.7,0.6-5.7c-0.4-2-1.3-3.6-2.8-5c-1.9-1.8-4.4-2.7-7-2.6c-2.6,0.1-5,1.3-6.7,3.3
		c-1.7,2-2.5,4.4-2.2,7.1c0.3,3.1,1.8,5.5,4.6,7.3l0.5,0.3l-1,0.4c-0.3,0.1-0.6,0.2-0.9,0.4c-5,2.3-8.4,7.1-8.8,12.5
		c0,0.2,0,0.5,0.2,0.6c0.1,0.2,0.3,0.2,0.5,0.3c0,0,0.1,0,0.1,0c0.4,0,0.7-0.3,0.8-0.8c0.1-0.5,0.1-0.9,0.2-1.3
		c0.5-3,1.9-5.5,4.1-7.5c3-2.8,6.6-4,10.7-3.6c2.1,0.2,4,0.9,5.8,2c3.5,2.3,5.6,5.5,6.2,9.6c0,0.2,0,0.4,0.1,0.6
		c0,0.3,0.1,0.5,0.3,0.7c0.2,0.1,0.3,0.2,0.5,0.2c0.2,0,0.4-0.1,0.5-0.3C65.3,35.1,65.4,34.9,65.4,34.7z M58.3,12.9
		c0,2.2-0.9,4.2-2.4,5.7c-1.5,1.5-3.5,2.3-5.6,2.3l-0.2,0c-4.3-0.1-7.8-3.7-7.8-8c0-2.1,0.8-4.1,2.3-5.6c1.5-1.5,3.5-2.3,5.6-2.3
		c2.1,0,4.1,0.8,5.6,2.4C57.5,8.8,58.3,10.8,58.3,12.9z"/>
	<path class="st0" d="M23.1,74.6c-0.2-0.1-0.4-0.2-0.7-0.3l-1-0.4l0.5-0.3c1.8-1.1,3-2.5,3.8-4.3c0.8-1.8,1-3.7,0.6-5.7
		c-0.4-2-1.3-3.6-2.8-5c-1.9-1.8-4.4-2.7-7-2.6c-2.6,0.1-5,1.3-6.7,3.3c-1.7,2-2.5,4.4-2.2,7.1c0.3,3.1,1.8,5.5,4.6,7.3l0.5,0.3
		l-1,0.4c-0.3,0.1-0.6,0.2-0.9,0.4c-5,2.3-8.4,7.1-8.8,12.5c0,0.2,0,0.5,0.2,0.6c0.1,0.2,0.3,0.2,0.5,0.3c0,0,0.1,0,0.1,0
		c0.4,0,0.7-0.3,0.8-0.8c0.1-0.5,0.1-0.9,0.2-1.3c0.5-3,1.9-5.5,4.1-7.5c3-2.8,6.6-4,10.7-3.6c2.1,0.2,4,0.9,5.8,2
		c3.5,2.3,5.6,5.5,6.2,9.6c0,0.2,0,0.4,0.1,0.6c0,0.3,0.1,0.5,0.3,0.7c0.2,0.1,0.3,0.2,0.5,0.2c0.2,0,0.4-0.1,0.5-0.3
		c0.1-0.2,0.2-0.4,0.2-0.6c-0.1-0.7-0.1-1.3-0.3-1.9C30.7,80.3,27.8,76.7,23.1,74.6z M25.1,65.4c0,2.2-0.9,4.2-2.4,5.7
		c-1.5,1.5-3.5,2.3-5.6,2.3l-0.2,0c-4.3-0.1-7.8-3.7-7.8-8c0-2.1,0.8-4.1,2.3-5.6c1.5-1.5,3.5-2.3,5.6-2.3c2.1,0,4.1,0.8,5.6,2.4
		C24.3,61.3,25.1,63.3,25.1,65.4z"/>
	<path class="st0" d="M94.6,86.9c-1.1-5-4.1-8.6-8.7-10.7c-0.2-0.1-0.5-0.2-0.7-0.3l-1-0.4l0.5-0.3c1.8-1.1,3-2.5,3.8-4.3
		c0.8-1.8,1-3.7,0.6-5.7c-0.4-2-1.3-3.6-2.8-5c-1.9-1.8-4.4-2.7-7-2.6c-2.6,0.1-5,1.3-6.7,3.3c-1.7,2-2.5,4.4-2.2,7.1
		c0.3,3.1,1.8,5.5,4.6,7.3l0.5,0.3l-1.1,0.4c-0.3,0.1-0.5,0.2-0.8,0.3c-5,2.3-8.4,7.1-8.8,12.5c0,0.2,0,0.5,0.2,0.6
		c0.1,0.2,0.3,0.2,0.5,0.3c0,0,0.1,0,0.1,0c0.4,0,0.7-0.3,0.8-0.8c0.1-0.5,0.1-0.9,0.2-1.3c0.5-3,1.9-5.5,4.1-7.5
		c3-2.8,6.6-4,10.7-3.6c2.1,0.2,4,0.9,5.8,2c3.5,2.3,5.6,5.5,6.2,9.6c0,0.2,0,0.4,0.1,0.6c0,0.3,0.1,0.5,0.3,0.7
		c0.1,0.1,0.3,0.2,0.5,0.2c0.2,0,0.4-0.1,0.5-0.3c0.1-0.2,0.2-0.4,0.2-0.6C94.8,88.1,94.8,87.5,94.6,86.9z M87.9,67
		c0,2.2-0.9,4.2-2.4,5.7c-1.5,1.5-3.5,2.3-5.6,2.3l-0.2,0c-4.3-0.1-7.8-3.7-7.8-8c0-2.1,0.8-4.1,2.3-5.6c1.5-1.5,3.5-2.3,5.6-2.3
		c2.1,0,4.1,0.8,5.6,2.4C87,62.9,87.9,64.9,87.9,67z"/>
	<path class="st0" d="M14.9,51.1l0.2,0l0-0.2c1.7-9.2,6.8-17.3,14.5-22.8l0.1-0.1l0-0.2c-0.1-0.4-0.2-0.7-0.2-1.1l-0.1-0.4L29,26.6
		C20.8,32.3,15.2,41.2,13.5,51l-0.1,0.3l0.3-0.1C14.2,51.2,14.5,51.2,14.9,51.1z"/>
	<path class="st0" d="M85.6,51.5l0,0.2l0.2,0c0.4,0.1,0.7,0.2,1.1,0.3l0.4,0.1l-0.1-0.4C85.7,41.6,80,32.4,71.5,26.5l-0.3-0.2
		l-0.1,0.4c-0.1,0.4-0.1,0.7-0.2,1.1l0,0.2l0.1,0.1C78.8,33.6,84.1,42.1,85.6,51.5z"/>
	<path class="st0" d="M60.6,91.7l-0.1-0.1l-0.2,0c-3.3,1-6.6,1.4-10.1,1.4c-4.4,0-8.6-0.8-12.7-2.3l-0.2-0.1l-0.1,0.2
		c-0.2,0.3-0.4,0.6-0.7,0.9L36.5,92l0.3,0.1c4.3,1.7,8.9,2.5,13.5,2.5c3.7,0,7.4-0.6,11-1.6l0.4-0.1l-0.3-0.3
		C61.1,92.3,60.9,92,60.6,91.7z"/>
</g>
</svg>
