<?xml version="1.0" encoding="utf-8"?>
<!-- Generator: Adobe Illustrator 25.4.1, SVG Export Plug-In . SVG Version: 6.00 Build 0)  -->
<svg version="1.1" id="Layer_1" xmlns="http://www.w3.org/2000/svg" xmlns:xlink="http://www.w3.org/1999/xlink" x="0px" y="0px"
	 viewBox="0 0 97.5 97.5" style="enable-background:new 0 0 97.5 97.5;" xml:space="preserve">
<style type="text/css">
	.st0{fill:#0A2A63;}
</style>
<path class="st0" d="M92.3,70.6H69.3l0.2,23h22.9V70.6z M90.8,91.9H71V72.1h19.9V91.9z"/>
<path class="st0" d="M52.4,75.7v1.7l3.9,3l-1.9,0c-17.7-0.1-30-0.1-36.5-0.1c-1.2,0-2.2-0.1-3.2-0.4C8.1,78.3,3.5,72.1,4.2,65.6
	c0.8-7.5,6.2-12.7,13.7-13c2-0.1,3.9-0.1,5.9,0l0.5,0c0.7,0,1.4,0,2.1,0l8,0v6.5h23l0.1-5.8V36.2H34.2v14.9h-3.4c-1.1,0-2.2,0-3.3,0
	l-0.1,0c-2.6,0-5.1,0-7.6,0c-1.9,0-3.3,0.1-4.6,0.3c-4,0.7-7.7,3.1-10,6.7c-2.4,3.7-3.1,8-2.1,12C5.1,77.7,11,82,19.3,82l37.5,0
	l-4.4,3.4v1.8c2.6-1.9,6.1-4.6,7.4-5.6C58.4,80.4,55,77.7,52.4,75.7z M35.6,37.5H56v20.4H35.6V37.5z"/>
<path class="st0" d="M63.4,49.2c1.3,1,4.8,3.7,7.4,5.6v-1.8l-4.4-3.4l11.9,0c8.3,0,14.3-4.3,16.2-11.7c1.1-4,0.3-8.4-2.1-12
	c-2.3-3.6-6-6.1-10-6.7c-1.3-0.2-2.7-0.3-4.6-0.3c-2.5,0-41.3,0-43.9,0l-0.1,0c-1.1,0-2.2,0-3.3,0h-3.4V4H3.9v17.2L4,26.9h23v-6.5
	l8,0c0.7,0,1.4,0,2.1,0l0.5,0c1.9,0,40.2,0,42.1,0c7.4,0.3,12.9,5.5,13.7,13C94,39.9,89.4,46,82.8,47.8c-0.9,0.2-2,0.4-3.2,0.4
	c-6.5,0,6.9,0-10.8,0.1l-1.9,0l3.9-3v-1.7C68.1,45.5,64.7,48.1,63.4,49.2z M25.5,25.6H5.3V5.4h20.2V25.6z"/>
</svg>
