<?xml version="1.0" encoding="utf-8"?>
<!-- Generator: Adobe Illustrator 22.0.1, SVG Export Plug-In . SVG Version: 6.00 Build 0)  -->
<svg version="1.1" id="Layer_1" xmlns="http://www.w3.org/2000/svg" xmlns:xlink="http://www.w3.org/1999/xlink" x="0px" y="0px"
	 viewBox="0 0 97.5 97.5" style="enable-background:new 0 0 97.5 97.5;" xml:space="preserve">
<style type="text/css">
	.st0{fill:#0A2A63;}
</style>
<g>
	<path class="st0" d="M82.5,47.2H54.9v49.3h40.8V61.1L82.5,47.2z M82.7,49.6l10.7,11.4H82.7V49.6z M56.4,94.9V48.7h24.9v13.8h13
		v32.5H56.4z"/>
	<path class="st0" d="M43.1,34.1V15.9h18.4v25.7H63V14.4V2.6h18.4v39H83V1.1H61.5v13.3H41.6v19.7H21.7v19.3H1.8v28.7h19.9h1.5h18.4
		h1.5h4.1v-1.5h-4.1V34.1z M21.7,80.6H3.3V54.9h18.4V80.6z M41.6,80.6H23.2V53.4V35.6h18.4V80.6z"/>
	<rect x="67.1" y="80.3" class="st0" width="15.6" height="1.5"/>
	<rect x="67.1" y="71.6" class="st0" width="7.1" height="1.5"/>
	<rect x="80.2" y="71.6" class="st0" width="2.5" height="1.5"/>
</g>
</svg>
