<svg xmlns="http://www.w3.org/2000/svg" width="72" height="97.3" viewBox="0 0 72 97.3">
  <g id="Submit_Confidential_Report" transform="translate(-12.8 -0.1)">
    <path id="Path_5" data-name="Path 5" d="M12.8.1V97.4h72V.1ZM83.3,95.9h-69V1.6h69Z" fill="#0a2a63"/>
    <path id="Path_6" data-name="Path 6" d="M26.9,31.1V44.7l5.6-4.6,5.6,4.6V31.1a9.47,9.47,0,0,0-5.5-17.2A9.562,9.562,0,0,0,23,23.3,9.661,9.661,0,0,0,26.9,31.1Zm9.6,10.4-4.1-3.3-4.1,3.3V32a9.145,9.145,0,0,0,4.1.9,9.455,9.455,0,0,0,4.1-.9Zm-4-26.2a8,8,0,1,1-8,8A8.024,8.024,0,0,1,32.5,15.3Z" fill="#0a2a63"/>
    <path id="Path_7" data-name="Path 7" d="M75.1,34.9H51.5v6.4H75.1Zm-1.5,4.9H53V36.4H73.6Z" fill="#0a2a63"/>
    <path id="Path_8" data-name="Path 8" d="M75.1,25.6H51.5V32H75.1Zm-1.5,4.8H53V27H73.6Z" fill="#0a2a63"/>
    <path id="Path_9" data-name="Path 9" d="M75.1,16.3H51.5v6.4H75.1Zm-1.5,4.8H53V17.7H73.6Z" fill="#0a2a63"/>
    <path id="Path_10" data-name="Path 10" d="M28.3,62.4l-2.7-2.8-1.1,1,3.8,4.1L36.6,55l-1.2-.9Z" fill="#0a2a63"/>
    <rect id="Rectangle_4" data-name="Rectangle 4" width="32.5" height="1.5" transform="translate(42.8 55.9)" fill="#0a2a63"/>
    <rect id="Rectangle_5" data-name="Rectangle 5" width="32.5" height="1.5" transform="translate(42.8 61.4)" fill="#0a2a63"/>
    <path id="Path_11" data-name="Path 11" d="M28.3,79l-2.7-2.9-1.1,1.1,3.8,4,8.3-9.6-1.2-1Z" fill="#0a2a63"/>
    <rect id="Rectangle_6" data-name="Rectangle 6" width="32.5" height="1.5" transform="translate(42.8 72.4)" fill="#0a2a63"/>
    <rect id="Rectangle_7" data-name="Rectangle 7" width="32.5" height="1.5" transform="translate(42.8 77.9)" fill="#0a2a63"/>
  </g>
</svg>
