<?xml version="1.0" encoding="utf-8"?>
<!-- Generator: Adobe Illustrator 22.0.1, SVG Export Plug-In . SVG Version: 6.00 Build 0)  -->
<svg version="1.1" id="Layer_1" xmlns="http://www.w3.org/2000/svg" xmlns:xlink="http://www.w3.org/1999/xlink" x="0px" y="0px"
	 viewBox="0 0 97.5 97.5" style="enable-background:new 0 0 97.5 97.5;" xml:space="preserve">
<style type="text/css">
	.st0{fill:#0A2A63;}
</style>
<g>
	<g>
		<path class="st0" d="M73.7,58.8C61.2,58.8,51,48.6,51,36.1s10.2-22.8,22.8-22.8s22.8,10.2,22.8,22.8S86.2,58.8,73.7,58.8z
			 M73.7,14.8c-11.7,0-21.3,9.5-21.3,21.3S62,57.3,73.7,57.3S95,47.8,95,36.1S85.4,14.8,73.7,14.8z"/>
	</g>
	<g>
		<path class="st0" d="M73.7,52.4c-9,0-16.4-7.3-16.4-16.4s7.3-16.4,16.4-16.4s16.4,7.3,16.4,16.4S82.7,52.4,73.7,52.4z M73.7,21.2
			c-8.2,0-14.9,6.7-14.9,14.9s6.7,14.9,14.9,14.9s14.9-6.7,14.9-14.9S81.9,21.2,73.7,21.2z"/>
	</g>
	<g>
		<polygon class="st0" points="69.2,43.6 66.2,40.3 67.3,39.2 69.2,41.4 80.4,30.3 81.4,31.4 		"/>
	</g>
	<g>
		<path class="st0" d="M22,34.4H7V19.3H22V34.4z M8.5,32.9h12.1V20.8H8.5V32.9z"/>
	</g>
	<g>
		<path class="st0" d="M22,53.1H7V38H22V53.1z M8.5,51.6h12.1V39.5H8.5V51.6z"/>
	</g>
	<g>
		<path class="st0" d="M22,71.8H7V56.7H22V71.8z M8.5,70.3h12.1V58.2H8.5V70.3z"/>
	</g>
	<g>
		<rect x="26.3" y="20.1" class="st0" width="20.9" height="1.5"/>
	</g>
	<g>
		<rect x="26.3" y="26.1" class="st0" width="13.8" height="1.5"/>
	</g>
	<g>
		<rect x="44.5" y="26.1" class="st0" width="2.8" height="1.5"/>
	</g>
	<g>
		<rect x="18.7" y="7.2" class="st0" width="3.8" height="1.5"/>
	</g>
	<g>
		<rect x="12.6" y="7.2" class="st0" width="3.8" height="1.5"/>
	</g>
	<g>
		<rect x="6.6" y="7.2" class="st0" width="3" height="1.5"/>
	</g>
	<g>
		<rect x="26.3" y="32.2" class="st0" width="20.9" height="1.5"/>
	</g>
	<g>
		<rect x="26.3" y="38.8" class="st0" width="20.9" height="1.5"/>
	</g>
	<g>
		<rect x="26.3" y="44.8" class="st0" width="13.8" height="1.5"/>
	</g>
	<g>
		<rect x="44.5" y="44.8" class="st0" width="2.8" height="1.5"/>
	</g>
	<g>
		<rect x="26.3" y="50.9" class="st0" width="20.9" height="1.5"/>
	</g>
	<g>
		<rect x="32" y="57.3" class="st0" width="15.6" height="1.5"/>
	</g>
	<g>
		<rect x="26.3" y="57.3" class="st0" width="1.8" height="1.5"/>
	</g>
	<g>
		<rect x="32" y="63.7" class="st0" width="15.6" height="1.5"/>
	</g>
	<g>
		<rect x="26.3" y="63.7" class="st0" width="1.8" height="1.5"/>
	</g>
	<g>
		<rect x="32" y="70.3" class="st0" width="15.6" height="1.5"/>
	</g>
	<g>
		<rect x="26.3" y="70.3" class="st0" width="1.8" height="1.5"/>
	</g>
	<g>
		<path class="st0" d="M62.4,78.3H5c-2.2,0-3.9-1.8-3.9-3.9V5.2C1,3,2.8,1.3,5,1.3H80C82.2,1.3,84,3,84,5.2v10.6h-1.5V5.2
			c0-1.3-1.1-2.4-2.4-2.4H5c-1.3,0-2.4,1.1-2.4,2.4v69.1c0,1.3,1.1,2.4,2.4,2.4h57.4V78.3z"/>
	</g>
	<g>
		<rect x="1.8" y="13.6" class="st0" width="68.1" height="1.5"/>
	</g>
	<g>
		<path class="st0" d="M71.4,83.8h-7.2c-2.2,0-3.9-1.8-3.9-3.9s1.8-3.9,3.9-3.9h7.2c2.2,0,3.9,1.8,3.9,3.9S73.5,83.8,71.4,83.8z
			 M64.2,77.4c-1.3,0-2.4,1.1-2.4,2.4s1.1,2.4,2.4,2.4h7.2c1.3,0,2.4-1.1,2.4-2.4s-1.1-2.4-2.4-2.4H64.2z"/>
	</g>
	<g>
		<path class="st0" d="M71.4,77.4h-7.2c-2.2,0-3.9-1.8-3.9-3.9s1.8-3.9,3.9-3.9h3.3v1.5h-3.3c-1.3,0-2.4,1.1-2.4,2.4
			s1.1,2.4,2.4,2.4h7.2c1.3,0,2.4-1.1,2.4-2.4c0-0.7-0.3-1.4-0.8-1.8l1-1.1c0.9,0.7,1.4,1.8,1.4,3C75.3,75.6,73.5,77.4,71.4,77.4z"
			/>
	</g>
	<g>
		<path class="st0" d="M67.8,71.1h-3.5c-2.2,0-3.9-1.8-3.9-3.9s1.8-3.9,3.9-3.9h3.3v1.5h-3.3c-1.3,0-2.4,1.1-2.4,2.4
			s1.1,2.4,2.4,2.4h3.5V71.1z"/>
	</g>
	<g>
		<path class="st0" d="M67.2,64.7h-2.9c-2.2,0-4-1.8-4-4s1.8-4,4-4h3.1v1.5h-3.1c-1.4,0-2.5,1.1-2.5,2.5s1.1,2.5,2.5,2.5h2.9V64.7z"
			/>
	</g>
	<g>
		<path class="st0" d="M70.7,72.8h-0.3c-2.1,0-3.8-1.7-3.8-3.8v-9.9c0-0.7,0.2-1.3,0.5-1.9l1.3,0.8c-0.2,0.3-0.3,0.7-0.3,1.1v9.9
			c0,1.2,1,2.3,2.3,2.3h0.3c1.2,0,2.3-1,2.3-2.3v-5.3h1.5v5.3C74.5,71.1,72.8,72.8,70.7,72.8z"/>
	</g>
	<g>
		<path class="st0" d="M74,96.3c-3.9,0-7-3.1-7-7v-6.1h1.5v6.1c0,3,2.5,5.5,5.5,5.5s5.5-2.5,5.5-5.5V65.7H81v23.6
			C81,93.1,77.9,96.3,74,96.3z"/>
	</g>
	<g>
		<path class="st0" d="M87.3,68.6h-2.5c-1,0-2-0.3-2.8-1l-2.7-2.1c-0.3-0.2-0.6-0.3-1-0.3h-4.6v-1.5h4.6c0.7,0,1.4,0.2,1.9,0.7
			l2.7,2.1c0.5,0.4,1.2,0.6,1.9,0.6h2.5V68.6z"/>
	</g>
	<g>
		<path class="st0" d="M91.7,62.1h-2.5c-1,0-2-0.4-2.8-1.1l-2.7-2.4c-0.3-0.2-0.6-0.4-1-0.4h-3.9v-1.5h3.9c0.7,0,1.4,0.3,1.9,0.8
			l2.7,2.4c0.5,0.5,1.2,0.7,1.8,0.7h2.5V62.1z"/>
	</g>
	<g>
		<path class="st0" d="M81.7,83.9h-1.5v-1.5h1.5c0.9,0,1.7-0.2,2.4-0.6l3.4-2c0.7-0.4,1.5-0.6,2.4-0.6h5V62.1h-4.2v-1.5h5.7v20.1
			h-6.5c-0.6,0-1.1,0.1-1.6,0.4l-3.4,2C83.9,83.6,82.8,83.9,81.7,83.9z"/>
	</g>
</g>
</svg>
